<?xml version="1.0" encoding="UTF-8"?>
<svg id="Layer_2" xmlns="http://www.w3.org/2000/svg" viewBox="0 0 543.58 149.71">
  <defs>
    <style>
      .cls-1 {
        fill: #231f20;
      }
    </style>
  </defs>
  <g id="Layer_1-2" data-name="Layer_1">
    <path class="cls-1" d="M157.88,73.07c0-22.91.05-45.82-.06-68.73-.01-3.15,1.01-4.23,4.16-4.17,11.72.22,23.44.51,35.15.19,4.13-.12,5.83,1.67,6.99,4.89,3.93,10.97,7.72,21.99,11.72,32.93,4.95,13.54,10.12,27,15.09,40.53,2.83,7.72,5.44,15.52,8.16,23.28.38,1.08.42,2.57,1.98,2.64,1.43.06,2.07-1.19,2.49-2.27,2.38-6.19,4.69-12.4,7-18.62,4.2-11.31,8.41-22.61,12.58-33.93,3.85-10.44,7.68-20.89,11.48-31.35,1.91-5.24,3.78-10.5,5.58-15.78.59-1.74,1.86-2.15,3.4-2.16,11.32-.13,22.64-.25,33.96-.33,3-.02,3.24,2.03,3.23,4.39-.05,15.32-.08,30.64-.03,45.96.08,28.1.35,56.21.26,84.31-.04,12.34.86,9.9-9.9,10.13-5.33.11-10.66-.11-15.98.06-3.53.11-4.64-1.39-4.6-4.78.13-12.39.12-24.78.04-37.16-.08-13.85-.34-27.69-.42-41.54-.02-3.32.38-6.64.53-9.96.04-.91.15-2.01-1-2.35-1.05-.3-1.65.53-2.3,1.23-3.07,3.31-3.24,7.82-4.66,11.75-5.43,15.09-10.34,30.36-15.85,45.43-4.05,11.07-7.7,22.28-11.36,33.48-.88,2.69-2.22,3.95-5.12,3.89-6.66-.13-13.32-.04-19.98-.04-5.81,0-6.74-.76-8.57-6.17-3.35-9.91-7.14-19.67-10.45-29.58-4.58-13.71-9.72-27.23-14.16-40.98-1.71-5.3-3.86-10.46-5.17-15.9-.27-1.12-.82-2.45-2.35-2.27-1.69.19-1.46,1.7-1.46,2.83.03,7.72.19,15.45.2,23.17.02,21.98-.05,43.96.03,65.93,0,2.3-.63,3.03-2.9,3.01-8.12-.1-16.25-.09-24.38-.03-2.57.02-3.38-.95-3.37-3.59.11-22.78.06-45.56.06-68.33h-.01ZM543.56,4.93c.02-3.86-1.12-5-5.05-4.93-18.5.32-37.01.51-55.51.24-3.91-.06-6.05,1.16-7.6,4.21-6.33,12.4-13.02,24.59-19.76,36.76-8.6,15.52-16.81,31.23-24.47,47.27-8.51,17.81-18.34,35-27.63,52.44-1.6,3-1.12,4,2.44,4.03,8.65.07,17.32-.14,25.96.12,3.76.11,5.85-1.31,7.51-4.55,5.02-9.81,10.34-19.47,15.4-29.26,1.36-2.62,3.23-3.53,6.06-3.52,14.65.07,29.3.12,43.94-.02,3.87-.04,5.16,1.45,5.08,5.2-.17,9.05.04,18.11-.12,27.16-.06,3.55,1.06,5.06,4.81,4.97,8.25-.2,16.51-.22,24.76.02,3.41.1,4.21-1.04,4.19-4.32-.14-22.64-.07-45.27-.08-67.91,0-22.64-.08-45.27.06-67.91ZM509.84,79.83c-.04,4.54-.87,5.24-5.45,5.24-9.72,0-19.44.04-29.15-.04-5.6-.05-6.15-1.05-3.55-5.95,8.98-16.98,17.95-33.97,26.96-50.93,1.98-3.73,5.56-2.51,8.57-2.35,3.02.16,2.63,2.81,2.64,4.92.02,8.12,0,16.24,0,24.36,0,8.25.05,16.51-.02,24.76ZM.06,97.45c-.01,16.38-.04,32.76-.05,49.14,0,1.88-.34,4.24,2.87,2.52,13.81-7.4,27.65-14.77,41.44-22.21,16.49-8.89,32.93-17.85,49.41-26.76,12.15-6.58,24.42-12.95,36.43-19.76,6.56-3.72,6.36-7.64-.22-11.22-11.55-6.28-23.2-12.39-34.79-18.61C64.83,34.3,34.52,18.03,4.2,1.76.16-.41.06-.37.06,4.37c0,23.57,0,47.14,0,70.71,0,7.46,0,14.91,0,22.37ZM334.51,72.72c0,22.92.07,45.83-.08,68.75-.02,3.12,1.35,3.55,3.82,3.54,8.53-.04,17.06-.11,25.58.04,3.19.06,4.11-1.15,4.09-4.24-.13-17.19-.08-34.37-.11-51.56,0-5.4.78-6.04,6.32-6,14.25.1,28.51.06,42.76.15,2.27.02,3.73-.77,4.8-2.78,2.98-5.59,6.1-11.11,9.15-16.67.75-1.36,2.18-2.75,1.19-4.35-.99-1.58-2.89-.97-4.45-.97-18.25-.03-36.5-.06-54.75-.03-3.49,0-5.1-1.37-5.04-5.01.13-7.86.11-15.72-.02-23.58-.06-3.33,1.38-4.42,4.57-4.41,24.78.1,49.55.06,74.33.19,2.33.01,3.85-.68,4.88-2.63,3.59-6.82,7.17-13.66,10.73-20.5.99-1.91.33-2.6-1.79-2.58-9.99.11-19.98.07-29.97.19-30.37.34-60.74.52-91.11-.13-3.56-.08-4.97.76-4.94,4.63.16,22.65.08,45.3.08,67.95h-.04Z"/>
  </g>
</svg>