<?xml version="1.0" encoding="UTF-8"?>
<svg xmlns="http://www.w3.org/2000/svg" version="1.1" viewBox="0 0 437.1 67.9">
  <defs>
    <style>
      .cls-1 {
        fill: #231f20;
      }
    </style>
  </defs>
  <!-- Generator: Adobe Illustrator 28.7.1, SVG Export Plug-In . SVG Version: 1.2.0 Build 142)  -->
  <g>
    <g id="Layer_1">
      <g id="Layer_2">
        <g id="Layer_1-2">
          <path class="cls-1" d="M432.9,65v-30.4c0-2.8-.5-5.5-1.4-8.1-1.5-4-4-7.1-8.1-8.7-3.5-1.3-7-1.5-10.6-.7-4.8,1.1-8.3,3.9-11,7.9-.2.3-.5.7-.9,1.3v-7.6c0-1,0-1.1-1.1-1.1h-11.5c-.8,0-1,.3-1,1v45.5c0,1.7-.2,1.6,1.6,1.6h10.5c2,0,1.7.2,1.7-1.8v-.9c0-8.2-.1-16.3.1-24.4,0-1.9.4-3.7,1.2-5.5,1.6-3.6,4.5-5.4,8.4-5.5,2.5,0,4.7.7,6.2,2.8.7.9,1.1,2,1.4,3.1.6,2.3.7,4.6.7,6.9v23.8c0,1.3,0,1.4,1.4,1.4h11.1c.4,0,.9,0,1.3-.2v-.6h0v.2Z"/>
        </g>
      </g>
    </g>
    <g id="Layer_2-2" data-name="Layer_2">
      <path class="cls-1" d="M382.1,32.3c-2.3-7.5-7.2-12.5-14.7-14.7-4.9-1.5-9.9-1.6-14.9-.3-8.1,2-13.5,7.1-16.1,15-2,6.4-2,12.9,0,19.4,1.6,5.3,4.7,9.4,9.6,12.1,4.1,2.3,8.5,3.1,13.1,3.1h0c2.3,0,4.6-.2,6.9-.7,7.2-1.7,12.5-5.8,15.3-12.7,2.8-6.9,3.1-14.1.9-21.2ZM368,49.7c-1.7,3.9-4.8,5.8-9,5.8-4.1,0-7.4-2.4-8.8-6.3-1.7-4.9-1.7-9.9,0-14.9,1.4-3.9,4.5-6.1,8.5-6.3,4.1-.2,7.3,1.7,9.1,5.5,1.3,2.6,1.6,5.4,1.6,8.2-.1,2.8-.3,5.5-1.4,8Z"/>
    </g>
    <g id="Layer_3">
      <path class="cls-1" d="M332.7,55.7c-2.5.3-4.9.4-7.4,0-2-.4-3.1-1.7-3.5-3.6-.2-.8-.3-1.7-.3-2.5v-20.5q0-1.1,1.1-1.1h9.9c1,0,1.1,0,1.1-1v-7.9c0-2.7,0-1.3-1.3-1.3h-9c-2.1,0-1.8.2-1.8-1.8V5.5c0-3.5.1-.9-.2-1.3-4.2,1.5-8.5,2.9-12.7,4.4-.6.2-.8.5-.7,1.1v5.6c0,.8,0,1.6-.1,2.4h-8.3c-1,0-1.1,0-1.1,1v8q0,1.1,1.1,1.2h7.1c.7,0,1.1.1,1,1v21.6c0,2.1.1,4.2.6,6.2,1.1,5.1,4.1,8.3,9.2,9.5,3,.7,6.1.8,9.1.5,2.2-.2,4.3-.6,6.4-1.1.5,0,.9-.3.9-1v-9.1c-.5,0-.8,0-1.1.2h0Z"/>
    </g>
    <g id="Layer_4">
      <path class="cls-1" d="M286.8,18.6c-6.6-2.5-13.3-2.6-20-.3-3.4,1.2-6.2,3.2-8.2,6.3-2.4,3.6-2.8,7.5-2,11.7.7,3.9,2.9,6.9,6.6,8.6.9.4,1.9.8,2.9,1,4.3,1.2,8.7,1.7,13.1,2.4,1.6.2,3.1.3,4.6,1,1.6.7,2.2,1.9,1.9,3.6-.3,1.6-1.3,2.6-2.8,3.2-1.9.8-3.8.9-5.8.8-4.6-.2-8.4-1.7-10-6.6-.2-.5-.4-.6-.9-.5-1.3.3-2.6.5-3.9.8-2.5.5-4.9,1-7.4,1.4-.6,0-.7.4-.6.9.1.5.3.9.5,1.4,2.1,5.8,6.3,9.3,12,11.1,4.5,1.4,9.1,1.7,13.8,1.4,3-.2,6-.8,8.7-2.1,3.7-1.7,6.7-4.1,8.4-8,1.1-2.5,1.2-5.2,1-7.8-.2-3.2-1.4-5.8-3.8-7.9-1.9-1.6-4.1-2.4-6.4-2.9-3.6-.8-7.3-1.2-10.9-1.8-1.9-.3-3.8-.4-5.7-1.1-2.2-.8-3.1-2.8-2.3-5,.5-1.4,1.4-2.2,2.7-2.8,2.1-.8,4.2-.9,6.4-.5,3.3.6,5.9,2.1,6.8,5.7.1.5.4.6.9.5,2.4-.4,4.9-.8,7.3-1.2,1.3-.2,2.5-.4,3.9-.7-1-5.8-5.3-10.7-10.7-12.7h-.1Z"/>
    </g>
    <g id="Layer_5">
      <path class="cls-1" d="M253,41.3c.1-2.9-.3-6-1.2-9-2-6.3-5.9-11-12-13.7-2.9-1.3-6-1.9-9.2-2.1-4.4-.2-8.6.4-12.6,2.2-6.1,2.8-10.1,7.5-12.1,13.8-1.9,6.1-1.9,12.3-.2,18.5,2,6.8,6.3,11.8,13.1,14.2,6.1,2.1,12.3,2.2,18.5.4,6.3-1.9,10.8-5.8,13.5-11.9,1.7-3.9,2.3-8,2.3-12.4h-.1ZM239,43c-.1,1.8-.3,3.6-.8,5.3-1.2,3.7-3.4,6.4-7.5,7-5.8.8-10.1-2.2-11.4-8-.4-1.9-.6-3.8-.6-5.4h.1c0-2.6.2-4.8.9-7,1.7-5.3,6.3-7.9,11.7-6.6,2.8.6,4.7,2.4,6,5,1.5,3.1,1.7,6.4,1.6,9.7Z"/>
    </g>
    <g id="Layer_6">
      <path class="cls-1" d="M202.2,46c-.2-4.2-1.8-7.5-5-10.2-2.4-2-5.1-3-8.3-3.9h0c1.2-.7,2.1-1.1,3-1.6,5.6-3.3,8.3-8.2,7.8-14.8-.3-4-1.8-7.4-5-9.9-1.9-1.5-4-2.5-6.3-3.1-3.6-1-7.3-1.5-11.1-1.5h-40c-.9,0-1.4.2-1.8,1.1-1,2.3-2.1,4.5-3.2,6.7-4.8,9.9-9.7,19.9-14.5,29.8-4,8.3-8.1,16.6-12.1,24.9-.4.7-.8,1.4-1,2.2.5.2.9.2,1.3.2h12.4c1,0,1.5-.3,1.9-1.2,2.2-4.7,4.5-9.4,6.8-14.1.3-.7.7-1.1,1.6-1.1h19.1q1.2,0,1.2,1.2v14.5c0,.4.1.6.5.6h.9c10.2.1,20.3.1,30.4,0,4,0,8-.8,11.8-2.4,4.8-2.1,8-5.6,9.2-10.8.5-2.2.6-4.3.5-6.5ZM147.7,38.4h-14.7c.9-1.7,1.6-3.2,2.3-4.7,3.1-6.5,6.3-12.9,9.4-19.4.5-1.2,1.1-1.5,2.4-1.5,1.8,0,1.8,0,1.8,1.8v22.6c0,1.2.1,1.2-1.2,1.2ZM163.1,13.9c0-.8.2-1.1,1-1.1,4.5,0,9.1-.1,13.6,0,1.7,0,3.2.4,4.7,1.2s2.5,2,2.9,3.7c1.1,5-1.8,8.7-7.1,9.2-2.4.2-4.8.2-6.9.2h0c-2.7.1-4.9.1-7.2.1s-1-.2-1-1v-12.4ZM187.7,46.7c0,2.9-1.6,4.9-4.2,6.1-1.9.9-3.9,1.1-5.9,1.1h-13.2q-1.2,0-1.2-1.2v-13q0-1.2,1.2-1.2h7.4v-.2c2.5,0,4.9,0,7.4.2,1.7.2,3.4.4,4.9,1.2,2.3,1.1,3.6,2.9,3.6,5.5v1.5Z"/>
    </g>
    <g id="Layer_7">
      <path class="cls-1" d="M130.1,2.4c0-.1.3-.4.4-.8,0-.2,0-.4,0-.5-.5-.2-1,0-1.5,0h-50c-2.1,0-1.8-.3-1.8,1.8v62.8c.6.3,1.1.2,1.5.2h11.2c1.7,0,1.6,0,1.6-1.6v-24.9c0-.5.2-.8.7-.7h19.1c.9,0,1.4-.3,1.8-1.1,1.2-2.5,2.4-5,3.6-7.4.5-1,1.1-2,1.4-3.2h-25.4q-1.2,0-1.2-1.1v-11.9c0-.8.2-1.1,1-1h31.3c.2,0,.7,0,1.2-.3.4-.3.6-.6.7-.9.7-1.6,1.5-3.2,2.3-4.9.7-1.5,1.5-3,2.2-4.4Z"/>
    </g>
    <g id="Layer_8">
      <path class="cls-1" d="M38.6,46.1c-1.4-4.2-2.8-8.3-4.2-12.5-6.1-18-6.1-17.9-6.1-17.9l-4.6-13.6s0-.6-.4-.9c-.2-.1-.5-.1-1.1-.1H6.5c-1.9,0-1.7-.3-1.7,1.8v62.8c.5.3,1,.2,1.5.2h9.5c2.2,0,1.9.3,1.9-1.9V24.8c0-.5-.1-1,.2-1.8.2.6.4,1,.5,1.3,1.9,5.8,3.8,11.6,5.7,17.4,2.5,7.6,5,15.2,7.4,22.8q.4,1.3,1.7,1.3h10.2c.9,0,1.3-.3,1.5-1.1,1-3.4,2.2-6.8,3.2-10.1,3.2-10.1,6.5-20.3,9.8-30.4,0-.4.2-1,.7-1.4v41.7c0,1.4-.2,1.4,1.3,1.4h11.2c.6,0,.8-.2.8-.8V2.3c0-1.4,0-1.3-1.3-1.3h-14.2q-1.3,0-1.8,1.3c-1.8,5.3-3.6,10.6-5.4,16-2.2,6.4-4.3,12.8-6.5,19.2-1.2,3.4-2.3,6.8-3.5,10.3-.4-.6-.6-1.1-.8-1.7h.2Z"/>
    </g>
  </g>
</svg>