<?xml version="1.0" encoding="UTF-8"?>
<svg id="Layer_2" xmlns="http://www.w3.org/2000/svg" viewBox="0 0 428.13 65.95">
  <g id="Layer_1-2" data-name="Layer_1">
    <path d="M184.05,30.92c3.21.85,5.94,1.93,8.26,3.88,3.16,2.65,4.83,6.05,5.01,10.17.1,2.18-.04,4.34-.53,6.47-1.2,5.21-4.36,8.74-9.2,10.83-3.77,1.62-7.75,2.3-11.82,2.36-10.12.15-20.24.19-30.36.14-.3,0-.59,0-.89-.01-.36,0-.52-.2-.51-.56,0-.35,0-.69,0-1.04,0-4.5,0-8.99,0-13.49,0-1.24-.01-1.25-1.16-1.25-6.37,0-12.74.02-19.11-.03-.95,0-1.28.43-1.63,1.14-2.28,4.7-4.6,9.39-6.84,14.1-.42.88-.89,1.21-1.9,1.19-4.15-.07-8.29-.02-12.44-.03-.38,0-.79.1-1.26-.16.18-.79.62-1.49.97-2.22,4.03-8.29,8.08-16.57,12.12-24.86,4.84-9.93,9.67-19.85,14.51-29.78,1.08-2.22,2.21-4.41,3.22-6.65.39-.86.89-1.11,1.79-1.11,7.01.03,14.02.01,21.03.01,6.37,0,12.74-.02,19.11,0,3.76.02,7.48.46,11.11,1.49,2.29.65,4.44,1.65,6.32,3.14,3.17,2.52,4.69,5.88,4.98,9.87.47,6.56-2.18,11.48-7.79,14.84-.87.52-1.8.94-2.99,1.55ZM167,37.49c-2.47,0-4.94,0-7.4,0-1.22,0-1.24.02-1.24,1.2,0,4.35,0,8.69,0,13.04,0,1.23.02,1.25,1.19,1.25,4.39,0,8.79.04,13.18-.02,2.02-.03,4.04-.22,5.93-1.06,2.64-1.18,4.05-3.21,4.16-6.11.02-.49.02-.99,0-1.48-.06-2.57-1.27-4.4-3.57-5.51-1.53-.75-3.18-1.02-4.86-1.16-2.46-.2-4.93-.14-7.4-.15ZM166.52,26.25c2.05-.01,4.47.05,6.89-.16,5.34-.48,8.17-4.18,7.08-9.25-.37-1.72-1.38-2.93-2.89-3.73-1.46-.77-3.03-1.17-4.68-1.25-4.54-.23-9.08-.04-13.62-.12-.84-.02-.96.34-.96,1.06.03,4.15.03,8.3,0,12.45,0,.76.21,1.04,1,1.03,2.27-.04,4.54-.02,7.18-.02ZM128.08,37.37c5.11,0,9.94,0,14.77,0,1.32,0,1.16.02,1.16-1.23,0-7.51,0-15.01,0-22.52,0-1.8,0-1.71-1.78-1.83-1.26-.08-1.9.31-2.45,1.48-3.09,6.5-6.28,12.94-9.43,19.41-.73,1.5-1.45,3-2.27,4.69ZM33.79,45.07c-1.41-4.15-2.79-8.31-4.2-12.47-3.55-10.5-7.11-21-10.67-31.5C18.57.04,18.58.03,17.4.03c-5.23,0-10.47,0-15.7,0C-.24.03.01-.25.01,1.78c0,20.4,0,40.8,0,61.2,0,.54,0,1.08,0,1.6.54.28,1.04.18,1.53.18,3.16,0,6.32.02,9.48,0,2.15,0,1.88.28,1.88-1.89,0-13.04,0-26.08,0-39.12,0-.5-.1-1.02.25-1.78.22.62.35.97.47,1.33,1.89,5.81,3.77,11.62,5.66,17.43,2.47,7.59,4.95,15.18,7.43,22.76.41,1.26.41,1.27,1.71,1.27,3.41,0,6.81-.03,10.22.02.91.01,1.28-.28,1.54-1.14,1.03-3.4,2.15-6.76,3.24-10.14,3.25-10.13,6.5-20.26,9.77-30.39.14-.44.17-.95.73-1.42v6.13c0,11.85,0,23.71,0,35.56,0,1.35-.23,1.39,1.33,1.39,2.91,0,5.82,0,8.74,0,.84,0,1.68-.03,2.52,0,.58.02.81-.21.77-.78-.02-.34,0-.69,0-1.04,0-9.24,0-18.47,0-27.71,0-11.31,0-22.62,0-33.93,0-1.38.06-1.29-1.27-1.29-4.74,0-9.48,0-14.22,0-1.33,0-1.34,0-1.8,1.34-1.81,5.32-3.61,10.64-5.41,15.96-2.17,6.39-4.34,12.78-6.52,19.17-1.16,3.4-2.32,6.79-3.5,10.27-.44-.56-.57-1.14-.75-1.7ZM124.02.03c-16.63,0-33.27-.01-49.9,0-2.09,0-1.83-.31-1.83,1.76,0,20.45,0,40.9,0,61.35v1.45c.56.27,1.06.17,1.54.17,3.01,0,6.02,0,9.03,0,.74,0,1.48,0,2.22,0,1.73,0,1.55.12,1.56-1.63,0-.3,0-.59,0-.89,0-7.66,0-15.31,0-22.97,0-.35.01-.69,0-1.04-.02-.48.17-.75.68-.74.35,0,.69,0,1.04,0,6.02,0,12.04-.02,18.07.02.91,0,1.39-.27,1.78-1.11,1.16-2.5,2.44-4.95,3.64-7.44.48-1,1.07-1.96,1.39-3.19h-1.56c-3.8,0-7.6,0-11.4,0-4.15,0-8.29,0-12.44,0-1.16,0-1.18-.02-1.18-1.09,0-3.95.01-7.9-.02-11.85,0-.75.18-1.12.99-1.02.29.04.59,0,.89,0,10.12,0,20.24-.02,30.36.02.98,0,1.51-.28,1.92-1.16,1.47-3.12,3.01-6.21,4.5-9.32.18-.38.52-.74.33-1.26-.51-.2-1.06-.09-1.58-.09ZM354.27,65.91c-4.6-.02-9.02-.82-13.08-3.1-4.85-2.71-7.99-6.83-9.62-12.08-2-6.45-2.05-12.98.07-19.38,2.61-7.89,8.05-12.97,16.14-15.01,4.98-1.26,9.99-1.16,14.91.31,7.52,2.25,12.44,7.24,14.7,14.72,2.16,7.13,1.91,14.28-.9,21.17-2.8,6.88-8.09,11.01-15.32,12.66-2.27.52-4.57.77-6.9.71ZM364.62,40.74c-.06-2.83-.34-5.6-1.58-8.21-1.78-3.76-4.96-5.73-9.11-5.55-4.02.17-7.12,2.41-8.46,6.28-1.72,4.97-1.73,9.98.04,14.94,1.4,3.91,4.67,6.18,8.81,6.27,4.17.1,7.3-1.94,8.95-5.77,1.09-2.55,1.31-5.24,1.35-7.97ZM248.31,40.33c.03,4.41-.57,8.53-2.29,12.44-2.67,6.06-7.16,10.05-13.5,11.91-6.2,1.81-12.42,1.71-18.48-.45-6.79-2.42-11.13-7.37-13.06-14.25-1.73-6.16-1.71-12.41.25-18.54,2.03-6.33,6.03-11.03,12.15-13.77,3.99-1.78,8.21-2.43,12.56-2.18,3.17.19,6.26.8,9.18,2.1,6.09,2.72,9.96,7.41,11.96,13.71.95,2.99,1.29,6.07,1.24,9.02ZM213.9,40.9c-.06,1.57.2,3.48.63,5.36,1.3,5.77,5.65,8.83,11.42,8,4.11-.59,6.34-3.27,7.51-7.04.53-1.71.69-3.49.75-5.26.11-3.32-.11-6.61-1.6-9.68-1.26-2.57-3.19-4.36-6.02-5.04-5.39-1.28-10.04,1.31-11.73,6.58-.7,2.17-.95,4.43-.95,7.07ZM428.12,64.02c0-10.12.03-20.25-.02-30.37-.01-2.77-.47-5.5-1.44-8.12-1.49-4.03-3.96-7.13-8.09-8.69-3.47-1.31-7.02-1.48-10.62-.66-4.77,1.09-8.33,3.89-10.99,7.93-.22.34-.46.66-.89,1.27,0-.65,0-.94,0-1.23,0-2.12,0-4.25,0-6.37,0-1.03-.02-1.06-1.08-1.06-3.85-.01-7.7.01-11.55-.02-.79,0-1.02.26-1,1.02.05,1.58.01,3.16.01,4.74,0,13.58,0,27.16,0,40.75,0,1.68-.24,1.56,1.6,1.56,3.5,0,7.01,0,10.51,0,1.96,0,1.71.17,1.73-1.75,0-.3,0-.59,0-.89.05-8.15-.12-16.3.1-24.44.05-1.89.43-3.73,1.22-5.45,1.64-3.59,4.46-5.44,8.39-5.49,2.47-.03,4.68.67,6.2,2.82.66.94,1.1,1.98,1.38,3.09.58,2.27.66,4.58.66,6.91,0,7.95,0,15.9,0,23.85,0,1.35,0,1.36,1.38,1.36,3.7,0,7.4,0,11.11,0,.43,0,.89.11,1.32-.17.02-.18.05-.37.05-.57ZM282.02,17.56c-6.58-2.5-13.33-2.62-20-.3-3.37,1.17-6.21,3.22-8.22,6.26-2.37,3.59-2.76,7.55-2.02,11.66.72,3.94,2.87,6.86,6.56,8.57.94.44,1.93.75,2.93,1.03,4.29,1.2,8.7,1.71,13.09,2.36,1.56.23,3.15.32,4.61.98,1.56.7,2.18,1.92,1.85,3.6-.31,1.59-1.3,2.59-2.77,3.21-1.87.79-3.83.91-5.81.82-4.62-.21-8.42-1.71-9.96-6.58-.17-.53-.43-.56-.87-.46-1.3.28-2.6.55-3.91.81-2.47.49-4.93.99-7.4,1.43-.64.11-.73.4-.58.9.14.47.31.94.48,1.4,2.11,5.77,6.33,9.26,12.05,11.09,4.48,1.43,9.11,1.71,13.76,1.42,3.01-.19,5.97-.78,8.73-2.07,3.67-1.71,6.72-4.11,8.35-7.99,1.06-2.52,1.25-5.15,1.05-7.84-.23-3.15-1.42-5.83-3.83-7.9-1.85-1.59-4.07-2.38-6.41-2.87-3.62-.77-7.29-1.24-10.94-1.81-1.89-.3-3.84-.37-5.66-1.06-2.23-.85-3.09-2.75-2.3-5.01.47-1.35,1.38-2.25,2.7-2.75,2.09-.8,4.24-.86,6.41-.47,3.34.6,5.92,2.14,6.76,5.72.12.5.39.55.87.47,2.43-.43,4.86-.82,7.3-1.22,1.26-.21,2.51-.43,3.87-.66-.95-5.78-5.27-10.66-10.68-12.71ZM327.91,54.71c-2.46.26-4.92.39-7.36-.13-1.95-.42-3.08-1.67-3.5-3.57-.18-.82-.31-1.65-.31-2.49,0-6.82,0-13.63,0-20.45,0-1.11.02-1.13,1.13-1.13,3.31,0,6.61,0,9.92,0,1.05,0,1.08-.02,1.08-1.04.01-2.62,0-5.24,0-7.85,0-1.3-.01-1.31-1.26-1.32-3.01,0-6.02,0-9.03,0-2.15-.01-1.83.25-1.83-1.76,0-3.46.03-6.91.03-10.37,0-.41.14-.87-.24-1.32-4.22,1.46-8.45,2.93-12.69,4.36-.58.2-.75.5-.74,1.07.03,1.88.02,3.75,0,5.63,0,.78.09,1.56-.11,2.4-2.8,0-5.56,0-8.32,0-1.05,0-1.07.02-1.08,1.05-.01,2.67-.01,5.33,0,8,0,1.14.02,1.15,1.11,1.16,2.37.01,4.74.03,7.11-.01.73-.01,1.13.14,1.01.96-.04.29,0,.59,0,.89,0,6.91,0,13.83,0,20.74,0,2.08.15,4.15.6,6.18,1.11,5.06,4.1,8.3,9.19,9.51,3.01.72,6.06.76,9.12.52,2.16-.17,4.3-.58,6.4-1.12.53-.14.85-.33.85-.98-.03-2.96-.01-5.92-.01-9.07-.49.08-.78.13-1.06.16Z" style="fill: #231f20;"/>
  </g>
</svg>