<?xml version="1.0" encoding="UTF-8"?>
<svg xmlns="http://www.w3.org/2000/svg" version="1.1" viewBox="0 0 555.3 149.7">
  <defs>
    <style>
      .cls-1 {
        fill: #231f20;
      }
    </style>
  </defs>
  <!-- Generator: Adobe Illustrator 28.7.1, SVG Export Plug-In . SVG Version: 1.2.0 Build 142)  -->
  <g>
    <g id="Layer_1">
      <g>
        <g id="Layer_5">
          <path class="cls-1" d="M549.2,74.8V6.9h0c0-3.9-1.1-5-5-4.9-18.5.3-37,.5-55.5.2-3.9,0-6,1.2-7.6,4.2-6.3,12.4-13,24.6-19.8,36.8-8.6,15.5-16.8,31.2-24.5,47.3-8.5,17.8-18.3,35-27.6,52.4-1.6,3-1.1,4,2.4,4,8.7,0,17.3-.1,26,.1,3.8.1,5.8-1.3,7.5-4.5,5-9.8,10.3-19.5,15.4-29.3,1.4-2.6,3.2-3.5,6.1-3.5,14.7,0,29.3,0,43.9,0,3.9,0,5.2,1.4,5.1,5.2-.2,9.1,0,18.1-.1,27.2,0,3.5,1.1,5.1,4.8,5,8.2-.2,16.5-.2,24.8,0,3.4,0,4.2-1,4.2-4.3,0-22.6,0-45.3,0-67.9h0ZM515.5,81.8h0c0,4.5-.9,5.2-5.5,5.2h-29.2c-5.6,0-6.1-1.1-3.5-6,9-17,18-34,27-50.9,2-3.7,5.6-2.5,8.6-2.4,3,.2,2.6,2.8,2.6,4.9v49.2Z"/>
        </g>
        <g id="Layer_4">
          <path class="cls-1" d="M340.2,74.7v68.8c0,3.1,1.4,3.6,3.8,3.5,8.5,0,17.1-.1,25.6,0,3.2,0,4.1-1.1,4.1-4.2-.1-17.2,0-34.4-.1-51.6,0-5.4.8-6,6.3-6,14.2,0,28.5,0,42.8.2,2.3,0,3.7-.8,4.8-2.8,3-5.6,6.1-11.1,9.1-16.7.8-1.4,2.2-2.8,1.2-4.3-1-1.6-2.9-1-4.5-1h-54.8c-3.5,0-5.1-1.4-5-5,.1-7.9.1-15.7,0-23.6,0-3.3,1.4-4.4,4.6-4.4,24.8.1,49.5,0,74.3.2,2.3,0,3.9-.7,4.9-2.6,3.6-6.8,7.2-13.7,10.7-20.5,1-1.9.3-2.6-1.8-2.6-10,0-20,0-30,.2-30.4.3-60.7.5-91.1,0-3.6,0-5,.8-4.9,4.6.2,22.7,0,45.3,0,67.9h0Z"/>
        </g>
        <g id="Layer_3">
          <path class="cls-1" d="M248.9,104c0,0,0,1.7,1.1,2.4.1,0,.5.2.9.2,1.4,0,2.1-1.2,2.5-2.3,2.4-6.2,4.7-12.4,7-18.6,4.2-11.3,8.4-22.6,12.6-33.9,3.9-10.4,7.7-20.9,11.5-31.4,1.9-5.2,3.8-10.5,5.6-15.8.6-1.7,1.9-2.2,3.4-2.2,11.3,0,22.6-.2,34-.3,3,0,3.2,2,3.2,4.4v46c0,28.1.4,56.2.3,84.3,0,12.3.9,9.9-9.9,10.1-5.3.1-10.7-.1-16,0-3.5.1-4.6-1.4-4.6-4.8.1-12.4.1-24.8,0-37.2,0-13.8-.3-27.7-.4-41.5,0-3.3.4-6.6.5-10,0-.9.1-2-1-2.3-1-.3-1.6.5-2.3,1.2-3.1,3.3-3.2,7.8-4.7,11.8-5.4,15.1-10.3,30.4-15.9,45.4-4,11.1-7.7,22.3-11.4,33.5-.9,2.7-2.2,3.9-5.1,3.9-6.7-.1-13.3,0-20,0s-6.7-.8-8.6-6.2c-3.4-9.9-7.1-19.7-10.4-29.6-4.6-13.7-9.7-27.2-14.2-41-1.7-5.3-3.9-10.5-5.2-15.9-.3-1.1-.8-2.5-2.4-2.3-1.7.2-1.5,1.7-1.5,2.8,0,7.7.2,15.4.2,23.2v65.9c0,2.3-.6,3-2.9,3-8.1-.1-16.2,0-24.4,0s-3.4-.9-3.4-3.6c.1-22.8,0-45.6,0-68.3V6.2c0-3.2,1-4.2,4.2-4.2,11.7.2,23.4.5,35.1.2,4.1-.1,5.8,1.7,7,4.9,3.9,11,7.7,22,11.7,32.9,4.1,10.7,8.1,21.6,12.2,32.6,3.9,10.5,7.6,21,11.3,31.4Z"/>
        </g>
        <g id="Layer_2">
          <path class="cls-1" d="M5.7,99.4v49.1c0,1.9-.3,4.2,2.9,2.5,13.8-7.4,27.6-14.8,41.4-22.2,16.5-8.9,32.9-17.8,49.4-26.8,12.2-6.6,24.4-12.9,36.4-19.8,6.6-3.7,6.4-7.6-.2-11.2-11.6-6.3-23.2-12.4-34.8-18.6C70.5,36.3,40.2,20,9.9,3.8c-4-2.2-4.2-2.2-4.2,2.6v93.1h0Z"/>
        </g>
      </g>
    </g>
  </g>
</svg>