<?xml version="1.0" encoding="UTF-8"?>
<svg id="Layer_1" xmlns="http://www.w3.org/2000/svg" viewBox="0 0 576 576">
  <defs>
    <style>
      .cls-1 {
        fill: #231f20;
        stroke: #231f20;
        stroke-miterlimit: 10;
        stroke-width: .25px;
      }
    </style>
  </defs>
  <path class="cls-1" d="M173.4,250.49c0-9.91.02-19.82-.02-29.73,0-1.36.44-1.83,1.8-1.8,5.07.1,10.14.22,15.2.08,1.79-.05,2.52.72,3.02,2.12,1.7,4.74,3.34,9.51,5.07,14.24,2.14,5.86,4.38,11.68,6.53,17.53,1.22,3.34,2.35,6.71,3.53,10.07.16.47.18,1.11.85,1.14.62.03.9-.51,1.08-.98,1.03-2.68,2.03-5.37,3.03-8.05,1.82-4.89,3.64-9.78,5.44-14.68,1.67-4.52,3.32-9.04,4.97-13.56.82-2.27,1.64-4.54,2.42-6.82.26-.75.81-.93,1.47-.94,4.9-.06,9.79-.11,14.69-.14,1.3,0,1.4.88,1.4,1.9-.02,6.63-.03,13.25-.01,19.88.03,12.15.15,24.31.11,36.46-.02,5.34.37,4.28-4.28,4.38-2.3.05-4.61-.05-6.91.02-1.53.05-2.01-.6-1.99-2.07.06-5.36.05-10.72.02-16.07-.04-5.99-.15-11.98-.18-17.96,0-1.43.16-2.87.23-4.31.02-.39.06-.87-.43-1.01-.45-.13-.71.23-1,.53-1.33,1.43-1.4,3.38-2.02,5.08-2.35,6.53-4.47,13.13-6.86,19.65-1.75,4.79-3.33,9.64-4.92,14.48-.38,1.16-.96,1.71-2.22,1.68-2.88-.06-5.76-.02-8.64-.02-2.51,0-2.92-.33-3.71-2.67-1.45-4.28-3.09-8.51-4.52-12.79-1.98-5.93-4.2-11.78-6.12-17.73-.74-2.29-1.67-4.53-2.24-6.88-.12-.48-.36-1.06-1.02-.98-.73.08-.63.74-.63,1.22.01,3.34.08,6.68.08,10.02,0,9.51-.02,19.01.01,28.52,0,.99-.27,1.31-1.26,1.3-3.51-.04-7.03-.04-10.54-.01-1.11,0-1.46-.41-1.46-1.55.05-9.85.03-19.7.03-29.56h0ZM340.21,221.02c.01-1.67-.49-2.16-2.18-2.13-8,.14-16.01.22-24.01.11-1.69-.02-2.61.5-3.29,1.82-2.74,5.36-5.63,10.64-8.55,15.9-3.72,6.71-7.27,13.51-10.58,20.45-3.68,7.71-7.93,15.14-11.95,22.68-.69,1.3-.48,1.73,1.05,1.74,3.74.03,7.49-.06,11.23.05,1.63.05,2.53-.57,3.25-1.97,2.17-4.24,4.47-8.42,6.66-12.66.59-1.14,1.4-1.53,2.62-1.52,6.34.03,12.67.05,19.01-.01,1.67-.02,2.23.63,2.2,2.25-.07,3.92.02,7.83-.05,11.75-.03,1.53.46,2.19,2.08,2.15,3.57-.09,7.14-.09,10.71,0,1.47.04,1.82-.45,1.81-1.87-.06-9.79-.03-19.58-.03-29.37,0-9.79-.03-19.58.03-29.37ZM325.63,253.42c-.02,1.96-.38,2.27-2.36,2.27-4.2,0-8.41.02-12.61-.02-2.42-.02-2.66-.45-1.54-2.57,3.88-7.35,7.77-14.69,11.66-22.03.86-1.61,2.41-1.09,3.71-1.02,1.31.07,1.14,1.22,1.14,2.13,0,3.51,0,7.02,0,10.54,0,3.57.02,7.14-.01,10.71ZM105.13,261.04c0,7.08-.02,14.17-.02,21.25,0,.81-.15,1.83,1.24,1.09,5.98-3.2,11.96-6.39,17.92-9.61,7.13-3.85,14.24-7.72,21.37-11.58,5.26-2.84,10.56-5.6,15.76-8.55,2.84-1.61,2.75-3.3-.09-4.85-5-2.72-10.03-5.36-15.05-8.05-13.11-7.03-26.23-14.07-39.34-21.11-1.75-.94-1.79-.92-1.79,1.13,0,10.19,0,20.39,0,30.58,0,3.23,0,6.45,0,9.68ZM249.79,250.34c0,9.91.03,19.82-.03,29.73,0,1.35.58,1.54,1.65,1.53,3.69-.02,7.38-.05,11.06.02,1.38.02,1.78-.5,1.77-1.83-.06-7.43-.04-14.87-.05-22.3,0-2.34.34-2.61,2.73-2.59,6.17.04,12.33.02,18.5.07.98,0,1.61-.33,2.08-1.2,1.29-2.42,2.64-4.81,3.96-7.21.32-.59.94-1.19.51-1.88-.43-.69-1.25-.42-1.92-.42-7.89-.01-15.79-.03-23.68-.01-1.51,0-2.21-.59-2.18-2.17.05-3.4.05-6.8,0-10.2-.02-1.44.6-1.91,1.97-1.91,10.72.04,21.43.02,32.15.08,1.01,0,1.67-.3,2.11-1.14,1.55-2.95,3.1-5.91,4.64-8.87.43-.82.14-1.12-.77-1.11-4.32.05-8.64.03-12.96.08-13.14.15-26.27.23-39.41-.06-1.54-.03-2.15.33-2.14,2,.07,9.8.03,19.59.03,29.39h-.02Z"/>
</svg>