<?xml version="1.0" encoding="UTF-8"?>
<svg id="a" xmlns="http://www.w3.org/2000/svg" viewBox="0 0 305.7 125.4">
  <defs>
    <style>
      .b {
        fill: #fff;
      }
    </style>
  </defs>
  <path class="b" d="M252.8,53.2c10.3-2.4,21.7-2.8,31.6,1.6s15.4,11.1,14.1,19.6-17.2,8.8-14.9-1.4c.9-4.1,6.9-4.3,6.9-5-7.5-11-23.2-12.2-35.1-8.9,2.1,9.1,4.5,18.5.9,27.6-7.4,18.9-34.7,11.1-26.2-12.1,2.9-8.1,9.5-13.9,16.5-18.4l-4.8-12.1c-1.3-.3-.9.2-1.2.7-7.5,11.5-14.7,36.4-32.6,34.9-12.9-1.1-16.1-15.8-15.9-26.4l-5.8,13.8c-2.4,4.2-6.5,9.3-11.7,9.9-13.2,1.4-12.9-10.8-12.7-20.2s3.5-18-6-15.1-6.2,5.3-6.7,6.8c-1.3,3.9-1.1,12-2.1,16.8-.8,3.8-3.3,13.7-8.2,13.7-7,0-3.2-14.5-1.9-18.4,2-6.2,6.4-11.2,6-17.8s-4.2-10.9-8.6-2.6c-5.5,10.5-7,22-15.2,31.7-9.9,11.8-25.2,11.3-32.7-2.4l-11.6,8.3c-.6.6-.6,1.4-.5,2.2,0,3.9,1.9,9.2,2.2,13.5.5,8.9-.2,21.4-10.3,24.8-12.9,4.3-21-7.9-17.4-19.5s11.1-15.4,16.9-22.5l-7-32-4.9,12.6c-5.5,15.5-27.7,31.7-42.9,18.7s-7.8-16.5-.1-20.1c7.7-3.6,13.6,10.9,3.1,13.1,4.7,6.3,13.9,5.7,20.1,2,6.2-3.7,12.4-14,15.5-22.2,1.2-3.1,3.2-11.8,4.6-13.7s5.8-2.4,7.5-2.2,1.9,1.4,2.3,2.6c3.9,9.9,5,24.7,8.2,35.4s-.4,1,.8.8l10.8-8.6c-1.2-10.4-.2-23.1,8.6-30.1,9.7-7.7,24.1-2.5,20,11.3-1.8,6-8.3,11.7-13,15.6s-6.8,4.4-6.7,5.6c2.7,7.4,10.9,10.6,17.5,5.8,12.4-9,15.7-38.1,25.8-42.6s12.3,4.2,12.8,11.4c7.7-8,19.8-8.8,21,4.6.5,5.6-2.5,21.6,1.3,25.1s8-2.9,9.7-5.9c5.6-9.7,8.3-21.6,12-32.2,1-3.4,7.7-2.2,8.2.7-.5,7.6-2,15.5-1.6,23.2.4,8.3,2.2,19.4,13.1,17.4s13.1-12.6,16.1-17.8,8.4-14.9,9-18-1.1-6.3-1-9.6c.3-5.4,2.5-9.3,8.4-9.4,9.8-.2,1.2,14.1-.1,18.5l7.5,17.5.4-.6ZM91.3,56.5c1.4-.4,3.2-2,4.3-3,3.6-3.1,13.1-11.9,9.4-17s-8.5,1-10.4,4.1-3.3,6.9-3.3,8v7.8h0ZM249,63c-7.6,3.8-14.1,14-12.2,22.7s8.1,5.5,11.3,1c4.5-6.3,3-16.7.8-23.7h0ZM67.3,84.5c-5.9,5-15.3,16.8-10,24.5s6.8,3.1,9.4-.3,2.7-9.3,2.5-13.7-1.1-10.5-1.9-10.5Z"/>
  <path class="b" d="M218.2,33.3c-9.5-3.1-1.9-18.1,6.2-11.3s-.7,16.1-5.7,19.6-7.9,4.4-6.9.7,6.5-6.1,6.4-9Z"/>
  <path class="b" d="M60.3,22.4c-7.3,6.6-15.8-10.4-7.2-15s12.6,10.2,7.2,15Z"/>
  <path class="b" d="M205.1,19.1c-8.7,7.8-14.2-10-4.7-12.5s9.5,8.1,4.7,12.5Z"/>
</svg>