<?xml version="1.0" encoding="UTF-8"?>
<svg id="a" data-name="Layer 1" xmlns="http://www.w3.org/2000/svg" viewBox="0 0 696 597.2">
  <defs>
    <style>
      .b {
        fill: #6e2e60;
      }

      .c {
        fill: #fff;
      }

      .d {
        fill: none;
        stroke: #231f20;
        stroke-miterlimit: 10;
        stroke-width: 6px;
      }
    </style>
  </defs>
  <rect class="b" x="208.7" y="7" width="304.6" height="295.1"/>
  <rect class="b" x="208.7" y="298.6" width="304.6" height="278.4"/>
  <line class="d" x1="432.7" y1="458" x2="679.8" y2="458"/>
  <line class="d" x1="15.8" y1="150.7" x2="262.9" y2="150.7"/>
  <line class="d" x1="15.8" y1="61.2" x2="179.7" y2="61.2"/>
  <polygon class="c" points="503.3 209.4 482.2 218.2 466.7 211 468.6 187.1 487.9 179.9 500.9 186.9 503.3 209.4"/>
  <path class="c" d="M297.6,367.3c-.5,3.5-3.8,25.3-5.2,26.4-.9.7-3.8,1.3-5.1,1.2-2.1-.2-23.7-5.8-24.4-6.8l-1.8-17.9,13.7-13.6c2.7-1.2,18.7,9.9,22.9,10.7Z"/>
  <path class="c" d="M454.7,272.9l12.9-4.8,18.3,13,.7,1.6c-1.7,3.9-.8,16.7-3.1,19.3-.4.5-10.3,5.7-10.9,5.8-1.2.1-16.2-3.1-16.7-3.8-2.7-3.1-.5-25.7-1.1-31.1Z"/>
  <path class="c" d="M368.8,217.6c.5,7,3.1,15.2,3.3,21.9,0,1.3.1,2.1-.8,3.2-.8.9-20.1,9.9-21.2,9.9l-13.9-7.2,5.8-25.3,8.2-5,18.7,2.5Z"/>
  <path class="c" d="M280.6,297.7l14.3,10.2c.2,4.4,3.1,14.4,0,17.5l-22.2,13.6-11.6-9.2c1.7-4.8,1.1-19,3.9-22.3,2.4-2.9,12.6-6.6,15.7-9.9Z"/>
  <path class="c" d="M241.8,363l-3.4-26.7,21.2-4.4c.7,0,11.1,7.6,11.7,8.4,1.1,1.4,3.3,12.7,2.8,14l-14.1,14.1-18.2-5.4Z"/>
  <path class="c" d="M340.1,220l-5.7,24.6c-7.5,3.9-15.9-.5-23.7-1.6l-8.7-25c.2-1.6,13.3-6,15.4-6s22,7.1,22.8,8.1Z"/>
  <path class="c" d="M504.2,247.2c-2.2,8.3-3.1,19.4-5.9,27.2-.9,2.5-8.2,4.5-11,5.4-2.5-2.8-17-11-18-12.8-.7-1.3-.2-7.5.4-9.2s13.2-17.4,14.3-17.8l20.2,7.2Z"/>
  <path class="c" d="M309.6,334.5c.7,1.2-4.6,23.9-5.5,26.6-.8,2.3-2.8,5.4-5.6,4.9s-21.2-10.7-21.9-11.7l-2.5-13.6c.7-1.1,19.5-13,21.5-13.8,4.1-1.7,10,6.2,14,7.6Z"/>
  <path class="c" d="M464.9,211c-3.5,1-8.8,4.9-12.3,5-1,0-12.5-3.2-13.2-3.7-1.1-.8-8.3-17.7-8.9-20-.8-2.8.2-4.2,2.9-5.1,4.1-1.4,21.6-4.7,25.7-4.8s7.1,2.8,7.5,5.2l-1.7,23.4Z"/>
  <path class="c" d="M277.1,226.5l23-7.1,8.4,24.5-14.9,13.3c-3.5-3.3-21.2-12.7-22.8-15.7-1.3-2.4,5.5-11.9,6.2-15Z"/>
  <path class="c" d="M394.4,278.5c.8.9,6,22.7,5.4,23.8-.6.9-1.5,1.2-2.4,1.6-3.1,1.6-17,6.2-20.4,6.8s-1.6.6-2.4,0l-11.2-14.5c-.1-1.1,4.8-12.3,5.7-13.5.7-.9,16.1-7.4,17.3-7.5s7.6,2.7,8.1,3.2Z"/>
  <path class="c" d="M291.9,192.1l9,24.1c-.3,1.2-22.5,8.2-24.2,7.6l-11.6-15.6c1.2-10,3.5-17.2,13-21.9l13.8,5.8Z"/>
  <path class="c" d="M211.3,246.3l-13.4,25.6c-.7.6-8.7,3.9-9.4,3.9s-10.5-4.8-10.9-5.3l-2.2-22.9c2.3-2.6,8.1-8.9,11.3-8.4,7.4.9,16.9,6.1,24.6,7.1Z"/>
  <path class="c" d="M480.9,220.1c.4.6,1.7,12.1,1.7,13.9.4,8.9-8.8,13.3-12.7,20.7l-2,.4-14.7-17.3.8-18.9c.7-2.5,9-4.7,11.5-6.1l15.5,7.3Z"/>
  <path class="c" d="M513.7,215.3l3.2,23.6c0,2.6-9.3,6.2-11.9,7l-20.3-8.4-1.9-17.5,22-9.4,9,4.7Z"/>
  <path class="c" d="M381.9,247.2c4.7-.7,17.7-7.4,21.5-6.1s10,6.7,10.3,7.4c1,2.5,1.6,14.9.6,17-3.5,2.1-16.7,11.4-19.8,11.1s-6.6-2.6-7.8-5.9c-.9-2.5-5.4-22.5-4.8-23.5Z"/>
  <path class="c" d="M524.2,306.3c-7.8-.4-15.8.5-23.6,0-1.9-.1-9.8-.8-10.8-1.2s-3.9-3.6-4-4.7l2.5-18.7c8.5-5.1,15.3-4.4,24.7-2.2l11.2,26.8Z"/>
  <path class="c" d="M349.8,213.4l-4.9-23.4c4.1-1.9,9.3-8.1,12.9-9.8s1.4-.6,2.6-.3,16.6,10.9,17,11.9.4,1.6.3,2.6c0,2.3-2,13.7-2.7,15.8-.8,2.2-4.2,3.7-5.8,5.4l-19.4-2.3Z"/>
  <path class="c" d="M528.1,324.9l12,14.9-1.1,11.4c-8.5,5.1-16.7,6.7-26.7,5.4l-12.2-18.6c3.2-2.2,26-14.2,27.9-13.1Z"/>
  <polygon class="c" points="428 297.4 401.8 300.7 396.5 278.3 415 267.9 430.6 275.5 428 297.4"/>
  <path class="c" d="M436,323.3c.8-.1,1.1,0,1.8.3s8.9,7.5,10.4,8.8c1.9,1.6,7.7,6.2,8,8.1.2,1.4-2.7,19.5-3.3,20.6-1,1.7-8,3.7-10.1,3.2-1-.2-8.3-3.1-8.6-3.5l-7.2-31.2c.5-1,7.9-6.2,9-6.3Z"/>
  <path class="c" d="M353.9,335l-12.9-32.7,20.5-4.5,12.2,14.7c.4,1.4-1.8,15.4-2.4,17.2-1.8,5.4-12.6,6.1-17.3,5.3Z"/>
  <path class="c" d="M279.1,282.5c1.4,1.4,1.5,11.6.6,13.4l-16.7,10.2-13.4-7.6-5.6-19.9c0-1.2.4-1.3,1.4-1.8s13.3-3.4,14.2-3.3c1.3,0,18.7,8.2,19.4,9Z"/>
  <path class="c" d="M317.6,334.6c2.1-.1,2.6-.3,4.7.4,1.7.5,18.2,10,18.5,11.1l-1.9,11.5c-.5.8-15,9.5-16.1,9.6s-14.4-2.1-15.8-2.5-1.2-.8-1.4-1.9l6-26.8c.6-.7,4.7-1.3,5.9-1.4Z"/>
  <path class="c" d="M264.9,243.1l-5.8,28.7c-4.9,0-12,3.9-16.4,3.9s-7-2.8-7.3-3.2c-.4-.6-2.6-13.3-2.6-14.7s.2-2.1,1.2-3.6c1-1.5,14.3-14,15.4-14.2l15.5,3Z"/>
  <path class="c" d="M427.2,299.3c1.2,0,1.2-.2,2.1.6s7.9,10.5,8.1,11.2c.5,1.7-.8,8.1-1.7,9.6-.6,1-8.6,6.3-10,6.8-2.6,1-14.2,2.1-16,.8l-8.4-25.3c1-1.2,22.5-3.5,25.9-3.8Z"/>
  <path class="c" d="M372.8,244c1.6-.2,6.1,2.7,6.8,4.1l6,25.1-16.1,6.8c-.7,0-1.1-.5-1.7-.8-.9-.5-13.3-13-14-14-1.5-2.3-3.4-9.8-1.1-11.5s19-9.4,20.1-9.6Z"/>
  <path class="c" d="M424.9,330.4l7.3,30.3-19.4,3.9c-1.2-.3-9.1-9-9.7-10.3-1.2-2.6-1.9-12.8-1.1-15.4.2-.8,6.7-8.1,7.6-8.4h15.4Z"/>
  <path class="c" d="M212.9,369.6l2-29.6c.5-.9,17.7-6.9,20-4.7,1.4,1,1.5,3,1.8,4.6,1.6,7.3,1.8,15.9,3.1,23.4l-11.4,8.7-15.4-2.3Z"/>
  <path class="c" d="M259.2,330.3c-5.4-.6-23.7,7.9-26.2,1.1s-2.5-13.7-2.6-15.9c0-1-.2-1.9.4-2.7l17.7-12,13.2,6.8-2.5,22.7Z"/>
  <path class="c" d="M316.1,280.7c.2,1.1-.5,1.8-.9,2.7-2.3,4.1-10.5,16.1-13.5,19.3-1.3,1.4-4.5,4-6.4,3.2l-13.1-10.2-.4-13.7,11.6-13.3,22.7,12Z"/>
  <path class="c" d="M373.7,363.1l-20.7,7.7-11.9-12.2c-.6-1.9.9-11.1,1.9-13,.8-1.4,9.8-8,11.5-8.5s9-.9,10.4,0l8.7,26Z"/>
  <polygon class="c" points="489 341.6 488.4 344.5 473 370 455 361.6 458.2 340 466.6 334 489 341.6"/>
  <path class="c" d="M400.1,218.3l1.6,20.7c-5.9.3-15.2,6.2-20.4,6.4s-5.8-2-6.8-3.5c-2.4-3.9-1.8-19-3.9-24.1l.7-1.6c1.4-.6,3-2.7,4.1-3.2,3.4-1.5,19.8,5.3,24.7,5.2Z"/>
  <path class="c" d="M239,217.7c.7.8,7.9,18.4,8.1,19.6.1.7.3,1.3,0,2l-13.9,13.4c-.7.7-1.3.8-2.2.6-1.6-.2-13.8-8-14.1-9.3l3.3-20.5c.1-.7.6-.9,1.1-1.3.7-.6,12.3-6.8,13.1-6.9s4.1,1.6,4.6,2.3Z"/>
  <polygon class="c" points="400.1 305.6 407.9 329.2 401.4 336.8 373.3 330.4 376.1 313.1 400.1 305.6"/>
  <path class="c" d="M292.7,258.5c.5.9.3,7.4-.2,8.6s-11.3,13.3-12.2,13.5l-19.4-8.7c3-8.1,2.8-18.9,5.6-26.8.4-1.1.8-2.1,2-2.7l24.3,16Z"/>
  <path class="c" d="M321.6,279.8c-2.1.5-3.9,0-5.8-.8s-17.4-9.7-19.7-11.6c-7.8-6.5,10.2-18.2,14.3-22.4l16.6,3.5-5.3,31.2Z"/>
  <path class="c" d="M377,211l3.1-19.4c3.4-1.4,11.2-9.4,14.4-8.2s13.7,10,14.1,10.8c.9,1.9-1.1,7-1.8,9.4-.7,2.3-3.5,11.9-5,12.6-2.8,1.4-20.3-5.2-24.8-5.3Z"/>
  <path class="c" d="M231.2,332.7c-8.2,1.5-16.3,7.7-24.4,2.5l-3.6-32.1,13-.7c.8.2,11.2,9.6,11.8,10.6.8,1.3,3.6,18.8,3.1,19.6Z"/>
  <path class="c" d="M228.1,276.7l-11.2,22.9c-3.7,1.8-15.1,3.5-18,.3-.8-.9-9.3-20.8-9.1-22l9.1-4.3,29.2,3.2Z"/>
  <path class="c" d="M230.2,194.5c1,1.3,3.8,18.8,3.3,19.7l-13.9,7-17.6-8.5-1.1-14.3,21.4-8.6c.6,0,7.5,4.2,7.8,4.7Z"/>
  <path class="c" d="M212.7,339.3l-2.2,30c-1.5.8-4.1,3.5-5.7,3.2s-15.4-7.4-16-8c-.8-.9-.7-1.3-.8-2.4-.4-2.9-.3-20.6,1-21.9,8-1.6,16.1-5,23.7-.9Z"/>
  <path class="c" d="M519.1,176.9l13.1,13.6c-3,4.8-6.5,18.5-10.9,21.2-6.6,4.1-10.7.8-16.1-3.5l-2.5-21.4,16.3-9.9Z"/>
  <path class="c" d="M468.2,332.7l5.2-23.2,12.4-6.1c1.6,1.5,3,2.7,4.1,4.8,1.4,2.8,8.2,23.8,8.6,26.7s.4,1.8-.2,2.6-6.6,2.9-7.8,2.8c-6.2-.5-15.4-7.2-22.3-7.6Z"/>
  <path class="c" d="M330.6,396l-6.3-26.6,15.3-9.3,12.2,12.7c.4,3.4,1.3,17.9-1.8,19.1l-19.4,4.1Z"/>
  <path class="c" d="M240.9,217.5l23.2-7.7,11.2,16c-1.5,2.9-6.1,14.7-8.5,15.5-1.7.5-15.7-2.3-17-3.5l-8.8-20.4Z"/>
  <path class="c" d="M500.2,275.9l6-28c4.5-2.3,12-8.4,16.4-3.6s4.3,20.8,6,25.2c-.4.7-13.6,7.8-14.5,7.9-3.9.7-9.8-2-14-1.6Z"/>
  <path class="c" d="M454.3,305.8c1.1-.1,13.6,2.5,15.1,3s1.7.2,2,1.3c.3,1.1-4.6,20.8-5.2,21.9-.6,1.1-7.6,5.7-8.8,5.6-3-2.5-19.3-14.6-19.6-17.2s1.6-7.4,2.8-8.4,12.9-6,13.8-6.1Z"/>
  <path class="c" d="M340.2,300.7l-7.2-15.3c2.6-2.6,17-18.5,19.4-18.1,3.6,4.4,11.3,9.5,14.2,13.9s.7.9.4,2c-.4,1.5-5.5,12-6.6,12.7l-20.2,4.8Z"/>
  <path class="c" d="M400.7,355.3c1.6,0,8.7,9.1,10.3,11-1.6,4.1-3.9,18.2-7.2,20.1-3.2,1.9-14.3-1.8-18.4-2.5l-6.5-19.2,21.8-9.4Z"/>
  <polygon class="c" points="325.7 183.1 317.3 209.5 301.8 214.3 294 191.9 311.9 180 325.7 183.1"/>
  <path class="c" d="M452.9,304.6l-13.8,5.8-9.2-13.2,3.3-21.1c3.8-.8,16-5.7,18.7-2.6,2.8,3.3.4,25.6,1.1,31.1Z"/>
  <path class="c" d="M400.1,339.3l-.3,14.3-23.6,9.5c-1.3-7.8-7.8-18-8.7-25.4-.4-3.3,2.3-4.2,4.9-5.6l27.7,7.1Z"/>
  <path class="c" d="M526.2,307.9c2.6.8-.2,12,0,14.4l-25.6,12.8-9.2-27.2h34.8Z"/>
  <path class="c" d="M477.4,370.4c-.2,0-2.1-1-2-1.2l15.6-26c2-1.8,6.5-4.3,8.8-2.4s11.4,16.3,11.5,17.3l-7.5,12.3c-8.2-.9-18.6,1.2-26.4,0Z"/>
  <polygon class="c" points="352.1 336.6 341.5 343.8 322.5 333.1 331.3 309.3 338.9 304 352.1 336.6"/>
  <path class="c" d="M218.3,222.4l-3.8,22c-1.1.7-2.3.3-3.5.2-7.5-1.1-16.8-5.8-24.5-7.1-.6-1,1.3-10.5,1.9-11.9s11.4-10.1,12.2-10.3c3.1-.9,13.6,6.7,17.7,7.2Z"/>
  <path class="c" d="M437.6,245.7l5.6,25.1c-.2.8-9.5,3.7-11.2,3.4s-15-7.8-15.4-8.7l-.4-16.4c.3-1.5,7-6.4,8.6-6.7s12,2.3,12.8,3.3Z"/>
  <path class="c" d="M329.1,248.1c.4-.4,5.4-1.7,6.2-1.4s12.7,7.1,13.2,7.6c1.9,2.2,1.4,6.6,2.6,9.4l-20.2,20.2-7.5-4.5,5.6-31.4Z"/>
  <path class="c" d="M234.3,274.5c1.6-.3,6.9,2.5,7.8,3.9.7,1.2,5.4,18.5,5.3,19.5-.2,1.1-.6,1.4-1.2,2.1-1.1,1.3-15.8,11.2-16.9,11.2l-10.8-10,12.1-23.9c.7-.9,2.7-2.6,3.7-2.8Z"/>
  <path class="c" d="M328.9,309.6l-8.8,22.8c-3.1.3-6.7,1.8-9.7.8s-11.6-8.1-12.2-9.5c-1.7-3.8.2-10.3-1.4-14.6.1-1.5,2.1-2.6,3.5-3,5.6-1.7,21.7,3.4,28.6,3.4Z"/>
  <path class="c" d="M265.6,194.4l-2.8,13.6-22.3,8c-1.3,0-4.2-1.6-4.7-2.4-.4-.7-2.9-15.2-2.9-16.4,0-.7,0-1.4.4-2,.5-.9,9.9-6.3,11.3-6.4s20.5,4.8,21.1,5.7Z"/>
  <path class="c" d="M328.5,184.9l14.7,6.8,5,21.4c-.2,1.3-5,4.8-6.2,5.1-2.7.7-19.1-6.7-22.5-8.4l9.1-24.9Z"/>
  <path class="c" d="M200.1,271.9l14.1-25.5c2.5-.8,13.8,7.8,16.7,9.5l2.6,16.3c-1.6,2.9-4.5,3-7.4,2.9-8.3-.4-17.6-2.6-26-3.2Z"/>
  <polygon class="c" points="428.9 191.9 436.6 213.5 428.5 219.7 405 215.1 411.4 195.5 428.9 191.9"/>
  <path class="c" d="M445.1,271l-5.5-25.2c.2-1,11.1-6.4,12.8-5.9s14.1,15.7,14.5,16.8c.6,1.6.8,6.7.3,8.2-1,3-18.5,8-22.2,6Z"/>
  <path class="c" d="M452.1,217.6c.9,1-.5,17.9-1.5,20.3-.5.6-10.8,5.5-11.9,5.6-3.4.4-9.1-2.8-12.9-2.8,1.3-5.5,1.8-12.3,3.6-17.6,1.1-3.5,6.3-7,9.7-8.8l13.1,3.3Z"/>
  <path class="c" d="M303.3,303.9c4.3-5.2,9.7-17.1,14.4-21.2,2.1-1.9,3.8-1.4,6.2-.6,8.8,3,10.3,11.8,14.6,19l-8.6,6.6-26.7-3.9Z"/>
  <path class="c" d="M403.9,216.9c7,1.6,14.5,2.2,21.5,3.8.9.2,1.7.2,2,1.3l-3.3,18.1c-.3.6-7,5.6-7.8,5.9-2.9.9-10.4-5.2-12.7-7.4l-1.4-20.3,1.7-1.4Z"/>
  <line class="d" x1="433.3" y1="342.2" x2="680.4" y2="342.2"/>
</svg>